<svg width="40" height="48" viewBox="0 0 40 48" fill="none" xmlns="http://www.w3.org/2000/svg">
<g filter="url(#filter0_d)">
<path d="M21.2891 20.9766L16.9955 27.6138L12.8984 29.3671C10.4844 26.6015 7.90632 23.3203 6.68749 19.1719L9.14062 14.6094L13.0859 12.7734C13.0157 13.1953 12.9687 13.6172 12.9687 14.0625C12.9687 17.9296 16.1327 21.0937 20 21.0937C20.4453 21.0937 20.8672 21.0468 21.2891 20.9766Z" fill="#FFDA2D"/>
<path d="M26.9148 15.3445C26.9852 14.925 27.0313 14.5055 27.0313 14.0625C27.0313 10.1984 23.8719 7.03594 20.0086 7.03125H20C19.5547 7.03125 19.1328 7.07813 18.7109 7.14844L24.9453 0.914062C28.7188 2.32031 31.7422 5.34375 33.1484 9.11719L26.9141 15.3516C26.9141 15.3492 26.9148 15.3469 26.9148 15.3445Z" fill="#80AEF8"/>
<path d="M33.1484 9.11719L31.0156 13.2812L26.9141 15.3516C26.9141 15.3492 26.9148 15.3469 26.9148 15.3445C26.9852 14.925 27.0312 14.5055 27.0312 14.0625C27.0312 10.1984 23.8719 7.03594 20.0086 7.03125H20.0023V5.85703L21.4062 2.73438L24.9453 0.914062C28.7187 2.32031 31.7422 5.34375 33.1484 9.11719Z" fill="#4086F4"/>
<path d="M33.1484 9.11719L26.9141 15.3515C26.3749 18.1875 24.125 20.4374 21.289 20.9766H21.2889L14.502 27.7634L12.8983 29.367C13.2968 29.8123 13.6483 30.2109 14.0234 30.6327C16.6016 33.5625 18.8281 36.2499 18.8281 38.8281C18.8281 39.4843 19.3437 40 20 40C20.6563 40 21.1719 39.4843 21.1719 38.8281C21.1719 36.2499 23.3984 33.5625 25.9766 30.6328C29.586 26.578 34.0625 21.5156 34.0625 14.0625C34.0625 12.3281 33.7578 10.6641 33.1484 9.11719Z" fill="#59C36A"/>
<path d="M33.1484 9.11719L26.9141 15.3514V15.3515C26.375 18.1875 24.1251 20.4374 21.2891 20.9766C21.289 20.9766 21.289 20.9766 21.2889 20.9766L20.0024 22.263V39.9995C20.6576 39.9981 21.1719 39.4834 21.1719 38.8281C21.1719 36.2499 23.3984 33.5625 25.9766 30.6328C29.586 26.578 34.0625 21.5156 34.0625 14.0625C34.0625 12.3281 33.7578 10.6641 33.1484 9.11719Z" fill="#00A66C"/>
<path d="M20.0024 22.2632L21.2891 20.9766C20.8681 21.0466 20.447 21.0931 20.0024 21.0934V22.2632Z" fill="#FDBF00"/>
<path d="M24.9453 0.914062L18.7109 7.14844C17.2812 7.42969 16.0155 8.1093 15.0312 9.09383L11.4062 7.57812L10.0625 4.125C12.5938 1.57023 16.1095 0 20 0C21.7344 0 23.3984 0.304687 24.9453 0.914062Z" fill="#4086F4"/>
<path d="M20.0024 5.8569L24.9453 0.914011C23.3992 0.304871 21.7359 0.000495605 20.0025 0.000183105V5.8569H20.0024Z" fill="#4175DF"/>
<path d="M15.0312 9.09375C14.047 10.0781 13.3671 11.3437 13.0859 12.7734L6.6875 19.1719C6.21875 17.6016 5.9375 15.9141 5.9375 14.0625C5.9375 10.1718 7.50773 6.65617 10.0625 4.125L15.0312 9.09375Z" fill="#F03800"/>
</g>
<defs>
<filter id="filter0_d" x="-4" y="0" width="48" height="48" filterUnits="userSpaceOnUse" color-interpolation-filters="sRGB">
<feFlood flood-opacity="0" result="BackgroundImageFix"/>
<feColorMatrix in="SourceAlpha" type="matrix" values="0 0 0 0 0 0 0 0 0 0 0 0 0 0 0 0 0 0 127 0"/>
<feOffset dy="4"/>
<feGaussianBlur stdDeviation="2"/>
<feColorMatrix type="matrix" values="0 0 0 0 0 0 0 0 0 0 0 0 0 0 0 0 0 0 0.25 0"/>
<feBlend mode="normal" in2="BackgroundImageFix" result="effect1_dropShadow"/>
<feBlend mode="normal" in="SourceGraphic" in2="effect1_dropShadow" result="shape"/>
</filter>
</defs>
</svg>
