<svg width="72" height="69" viewBox="0 0 72 69" fill="none" xmlns="http://www.w3.org/2000/svg">
<g clip-path="url(#clip0)" filter="url(#filter0_d)">
<path d="M54.75 3.875H47.25H39.75C32.5136 3.875 26.5 9.76363 26.5 17C26.5 23.601 31.5231 29.0795 37.875 29.9914V35.75C37.875 36.508 38.3309 37.1929 39.0322 37.4821C39.7239 37.7707 40.5351 37.616 41.0757 37.0756L47.25 30.9014L48.0264 30.125H54.75C61.9864 30.125 68 24.2364 68 17C68 9.76363 61.9864 3.875 54.75 3.875Z" fill="#FED843"/>
<path d="M54.75 30.125C61.9864 30.125 68 24.2364 68 17C68 9.76363 61.9864 3.875 54.75 3.875H47.25V30.9014L48.0264 30.125H54.75Z" fill="#FABE2C"/>
<path d="M51.75 47V54.5C51.75 57.7625 49.0863 60.125 46.1512 60.125C35.35 60.125 24.8125 55.0188 16.975 47.2125C9.1375 39.4063 4 28.9 4 18.0987C4 14.9962 6.52375 12.5 9.625 12.5H17.125C17.9325 12.5 18.6488 13.0163 18.9025 13.7812L22.6525 25.005C22.8363 25.555 22.755 26.1575 22.435 26.6388L19.255 31.41C20.46 33.9375 22.5925 36.7 25.055 39.1325C27.5187 41.5637 30.3125 43.665 32.84 44.87L37.6113 41.69C38.095 41.3712 38.695 41.2875 39.245 41.4725L50.495 45.2225C51.26 45.4762 51.75 46.1925 51.75 47Z" fill="#FF641A"/>
<path d="M51.75 47V54.5C51.75 57.7625 49.0863 60.125 46.1513 60.125C35.35 60.125 24.8125 55.0188 16.975 47.2125L25.055 39.1325C27.5188 41.5638 30.3125 43.665 32.84 44.87L37.6113 41.69C38.095 41.3713 38.695 41.2875 39.245 41.4725L50.495 45.2225C51.26 45.4763 51.75 46.1925 51.75 47Z" fill="#F03800"/>
<path d="M39.7498 18.8749C40.7854 18.8749 41.6248 18.0354 41.6248 16.9999C41.6248 15.9643 40.7854 15.1249 39.7498 15.1249C38.7143 15.1249 37.8748 15.9643 37.8748 16.9999C37.8748 18.0354 38.7143 18.8749 39.7498 18.8749Z" fill="#613D5C"/>
<path d="M47.25 18.8748C48.2855 18.8748 49.125 18.0353 49.125 16.9998C49.125 15.9642 48.2855 15.1248 47.25 15.1248C46.2145 15.1248 45.375 15.9642 45.375 16.9998C45.375 18.0353 46.2145 18.8748 47.25 18.8748Z" fill="#613D5C"/>
<path d="M49.125 16.9998C49.125 15.9643 48.2855 15.1248 47.25 15.1248V18.8748C48.2855 18.8748 49.125 18.0353 49.125 16.9998Z" fill="#4B2746"/>
<path d="M54.7498 18.8749C55.7854 18.8749 56.6248 18.0354 56.6248 16.9999C56.6248 15.9643 55.7854 15.1249 54.7498 15.1249C53.7143 15.1249 52.8748 15.9643 52.8748 16.9999C52.8748 18.0354 53.7143 18.8749 54.7498 18.8749Z" fill="#4B2746"/>
</g>
<defs>
<filter id="filter0_d" x="0" y="0" width="72" height="72" filterUnits="userSpaceOnUse" color-interpolation-filters="sRGB">
<feFlood flood-opacity="0" result="BackgroundImageFix"/>
<feColorMatrix in="SourceAlpha" type="matrix" values="0 0 0 0 0 0 0 0 0 0 0 0 0 0 0 0 0 0 127 0"/>
<feOffset dy="4"/>
<feGaussianBlur stdDeviation="2"/>
<feColorMatrix type="matrix" values="0 0 0 0 0 0 0 0 0 0 0 0 0 0 0 0 0 0 0.25 0"/>
<feBlend mode="normal" in2="BackgroundImageFix" result="effect1_dropShadow"/>
<feBlend mode="normal" in="SourceGraphic" in2="effect1_dropShadow" result="shape"/>
</filter>
<clipPath id="clip0">
<rect width="64" height="64" fill="white" transform="translate(4)"/>
</clipPath>
</defs>
</svg>
