<svg width="56" height="56" viewBox="0 0 56 56" fill="none" xmlns="http://www.w3.org/2000/svg">
<g filter="url(#filter0_d)">
<path d="M28 48C41.2548 48 52 37.2548 52 24C52 10.7452 41.2548 0 28 0C14.7452 0 4 10.7452 4 24C4 37.2548 14.7452 48 28 48Z" fill="#6F3FAA"/>
<path d="M38.412 13.1665C32.5702 11.7556 26.7181 10.1052 20.7273 12.202C16.8484 13.6566 16.8484 17.8586 17.0101 21.4142C17.0101 22.3838 15.8788 23.6768 16.3636 24.8081C17.3332 28.0404 18.1413 31.2727 21.5353 32.8889C22.0202 33.2122 21.5353 33.8586 21.8585 34.3434C21.6969 34.3434 21.3737 34.5051 21.3737 34.6667C21.3737 35.4413 21.7213 36.6262 21.4904 37.3901L31.8034 47.6989C42.4056 46.0104 50.692 37.38 51.8579 26.6125L38.412 13.1665Z" fill="#512D84"/>
<path d="M40.6963 16.8679L40.6884 16.8362C40.0471 14.2437 37.1561 11.462 34.5011 10.8832L34.4712 10.8771C30.1769 10.0579 25.8226 10.0579 21.5293 10.8771L21.4984 10.8832C18.8443 11.462 15.9532 14.2439 15.3111 16.8362L15.304 16.8679C14.5112 20.4882 14.5112 24.1598 15.304 27.7802L15.3111 27.8119C15.9259 30.2936 18.6016 32.9477 21.1575 33.6775V36.5714C21.1575 37.6189 22.4339 38.1333 23.1598 37.3774L26.0918 34.3296C26.7278 34.3652 27.3641 34.3851 28.0002 34.3851C30.1618 34.3851 32.3244 34.1806 34.4711 33.7711L34.501 33.7649C37.156 33.1862 40.047 30.4042 40.6883 27.812L40.6962 27.7803C41.4889 24.1598 41.4889 20.4884 40.6963 16.8679ZM38.3759 27.2553C37.9477 28.9466 35.7526 31.0492 34.0085 31.4377C31.7252 31.872 29.4238 32.0575 27.1246 31.9939C27.0789 31.9926 27.0349 32.0104 27.0031 32.0432C26.6768 32.3781 24.8624 34.2409 24.8624 34.2409L22.5854 36.5779C22.4189 36.7515 22.1264 36.6333 22.1264 36.3937V31.5997C22.1264 31.5205 22.0698 31.4533 21.992 31.4379C21.9915 31.4377 21.9912 31.4377 21.9907 31.4376C20.2466 31.0491 18.0523 28.9465 17.6233 27.2552C16.9098 23.9827 16.9098 20.6653 17.6233 17.3929C18.0523 15.7015 20.2466 13.5989 21.9907 13.2104C25.9784 12.452 30.0217 12.452 34.0086 13.2104C35.7536 13.5989 37.9478 15.7015 38.3759 17.3929C39.0902 20.6654 39.0902 23.9828 38.3759 27.2553Z" fill="white"/>
<path d="M31.794 29.4681C31.5259 29.3866 31.2704 29.332 31.0329 29.2336C28.5738 28.2134 26.3107 26.8971 24.5181 24.8795C23.4986 23.7322 22.7007 22.4369 22.0263 21.066C21.7064 20.416 21.4369 19.7405 21.1621 19.0693C20.9116 18.4573 21.2806 17.825 21.6691 17.3638C22.0337 16.9309 22.5029 16.5998 23.011 16.3556C23.4076 16.1651 23.7987 16.275 24.0884 16.611C24.7145 17.3378 25.2897 18.1017 25.7553 18.9441C26.0417 19.4623 25.9631 20.0956 25.444 20.4482C25.3179 20.5339 25.2029 20.6346 25.0854 20.7314C24.9823 20.8162 24.8854 20.9019 24.8147 21.0167C24.6856 21.2268 24.6794 21.4748 24.7625 21.7033C25.4025 23.4621 26.4813 24.8299 28.2518 25.5667C28.5351 25.6845 28.8195 25.8217 29.1459 25.7837C29.6925 25.7199 29.8695 25.1203 30.2526 24.807C30.6269 24.501 31.1054 24.4969 31.5086 24.7521C31.912 25.0075 32.303 25.2814 32.6917 25.5585C33.0732 25.8303 33.453 26.0961 33.8049 26.4061C34.1433 26.7042 34.2598 27.0951 34.0692 27.4995C33.7205 28.2402 33.2128 28.8562 32.4807 29.2496C32.274 29.3604 32.0271 29.3963 31.794 29.4681C31.5259 29.3866 32.0271 29.3963 31.794 29.4681Z" fill="white"/>
<path d="M28.0066 15.5087C31.2231 15.5989 33.8651 17.7335 34.4312 20.9135C34.5277 21.4553 34.562 22.0092 34.6049 22.5593C34.623 22.7905 34.492 23.0103 34.2424 23.0134C33.9846 23.0165 33.8686 22.8007 33.8517 22.5696C33.8186 22.1119 33.7957 21.652 33.7326 21.1983C33.3997 18.8021 31.489 16.8198 29.104 16.3944C28.7451 16.3304 28.378 16.3136 28.0143 16.2755C27.7845 16.2514 27.4836 16.2375 27.4327 15.9517C27.39 15.7122 27.5921 15.5215 27.8202 15.5093C27.882 15.5056 27.9444 15.5085 28.0066 15.5087C31.2233 15.5989 27.9444 15.5085 28.0066 15.5087Z" fill="white"/>
<path d="M32.8948 21.8455C32.8895 21.8857 32.8868 21.9801 32.8631 22.069C32.7778 22.3919 32.2881 22.4323 32.1755 22.1065C32.142 22.0099 32.1371 21.8998 32.1369 21.7957C32.1357 21.1145 31.9877 20.4339 31.6441 19.8411C31.291 19.2319 30.7513 18.7199 30.1186 18.4099C29.7359 18.2225 29.3222 18.106 28.9028 18.0367C28.7195 18.0064 28.5342 17.9881 28.35 17.9624C28.1268 17.9314 28.0076 17.7891 28.0182 17.5692C28.0281 17.3631 28.1787 17.2147 28.4034 17.2276C29.1415 17.2694 29.8545 17.4291 30.5109 17.7766C31.8453 18.4834 32.6077 19.5988 32.8302 21.0884C32.8403 21.156 32.8564 21.2227 32.8616 21.2904C32.8741 21.4575 32.8821 21.6248 32.8948 21.8455C32.8895 21.8855 32.8821 21.6248 32.8948 21.8455Z" fill="white"/>
<path d="M30.8942 21.7676C30.6252 21.7725 30.4812 21.6234 30.4533 21.3769C30.4341 21.2049 30.4187 21.0305 30.3777 20.8631C30.2969 20.5334 30.1216 20.2279 29.8443 20.0259C29.7135 19.9306 29.565 19.8611 29.4097 19.8161C29.2124 19.759 29.0072 19.7748 28.8105 19.7266C28.5966 19.6742 28.4783 19.5009 28.512 19.3004C28.5425 19.1178 28.7201 18.9753 28.9197 18.9898C30.1667 19.0798 31.058 19.7245 31.1852 21.1926C31.1943 21.2962 31.2048 21.4056 31.1819 21.5049C31.1423 21.6743 31.0167 21.7594 30.8942 21.7676C30.6251 21.7724 31.0167 21.7594 30.8942 21.7676Z" fill="white"/>
<path d="M40.6963 16.8679L40.6884 16.8362C40.329 15.383 39.2623 13.8704 37.9267 12.7195L36.1212 14.3197C37.1948 15.1751 38.1147 16.3602 38.3761 17.3928C39.0904 20.6653 39.0904 23.9827 38.3761 27.2553C37.9479 28.9466 35.7528 31.0493 34.0087 31.4378C31.7254 31.872 29.424 32.0575 27.1248 31.9939C27.0791 31.9926 27.0351 32.0104 27.0033 32.0432C26.677 32.3781 24.8626 34.2409 24.8626 34.2409L22.5856 36.5779C22.4191 36.7515 22.1266 36.6335 22.1266 36.3938V31.5998C22.1266 31.5205 22.07 31.4533 21.9922 31.438C21.9918 31.438 21.9914 31.4378 21.9909 31.4378C20.9997 31.217 19.8635 30.4423 18.9883 29.5045L17.2042 31.0854C18.3184 32.2975 19.7555 33.2774 21.1575 33.6777V36.5716C21.1575 37.6191 22.4339 38.1335 23.1597 37.3776L26.0917 34.3299C26.7277 34.3654 27.3638 34.3853 28.0001 34.3853C30.1617 34.3853 32.3243 34.1808 34.471 33.7713L34.5009 33.7652C37.1559 33.1865 40.047 30.4047 40.6882 27.8123L40.6961 27.7806C41.4889 24.1599 41.4889 20.4884 40.6963 16.8679Z" fill="#D1D1D1"/>
<path d="M31.7941 29.4682C32.0271 29.3963 31.5259 29.3867 31.7941 29.4682V29.4682Z" fill="white"/>
<path d="M33.8051 26.406C33.4532 26.0962 33.0733 25.8302 32.6919 25.5583C32.3032 25.2813 31.9123 25.0073 31.5089 24.752C31.1056 24.4968 30.6272 24.5008 30.2528 24.8069C29.8697 25.1201 29.6928 25.7198 29.1462 25.7836C28.8198 25.8216 28.5353 25.6843 28.252 25.5666C27.1627 25.1134 26.3362 24.4204 25.7115 23.5454L24.384 24.722C24.4291 24.7742 24.4722 24.8278 24.518 24.8794C26.3107 26.897 28.5739 28.2132 31.0329 29.2335C31.2702 29.3319 31.5258 29.3867 31.7939 29.468C31.5258 29.3865 32.0272 29.3963 31.7939 29.468C32.0272 29.3963 32.2739 29.3602 32.4809 29.2493C33.2131 28.856 33.7206 28.2398 34.0694 27.4992C34.26 27.095 34.1435 26.704 33.8051 26.406Z" fill="#D1D1D1"/>
<path d="M28.0149 15.5091C28.0121 15.5091 28.0095 15.5088 28.0068 15.5088C28.0042 15.5086 28.0076 15.5088 28.0149 15.5091Z" fill="white"/>
<path d="M28.0067 15.5087C28.0094 15.5087 28.0121 15.5089 28.0148 15.5089C28.1933 15.5153 31.0965 15.5953 28.0067 15.5087Z" fill="white"/>
<path d="M32.6205 17.4222L32.0546 17.9238C32.944 18.7891 33.5573 19.936 33.7326 21.1981C33.7956 21.652 33.8188 22.1116 33.8519 22.5693C33.8686 22.8006 33.9845 23.0163 34.2425 23.0133C34.4922 23.0102 34.6231 22.7906 34.605 22.5592C34.562 22.0093 34.5278 21.4552 34.4313 20.9134C34.1835 19.5214 33.5379 18.3298 32.6205 17.4222Z" fill="#D1D1D1"/>
<path d="M32.8301 21.088C32.6681 20.0025 32.2178 19.1168 31.4698 18.442L30.9055 18.9421C31.1973 19.2012 31.4498 19.5054 31.6442 19.8409C31.9878 20.4337 32.1358 21.1143 32.137 21.7955C32.1371 21.8996 32.1421 22.0096 32.1756 22.1065C32.2884 22.4325 32.7779 22.392 32.8632 22.069C32.8869 21.9799 32.8896 21.8855 32.8949 21.8455C32.8896 21.8857 32.882 21.6249 32.8949 21.8455C32.882 21.6249 32.8741 21.4575 32.8615 21.2902C32.8565 21.2222 32.8403 21.1555 32.8301 21.088Z" fill="#D1D1D1"/>
<path d="M32.8949 21.8455C32.8821 21.6249 32.8895 21.8856 32.8949 21.8455V21.8455Z" fill="white"/>
<path d="M30.8942 21.7676C30.8984 21.7674 30.9025 21.7652 30.9065 21.7647C30.8951 21.7647 30.8777 21.765 30.8598 21.7657C30.8714 21.766 30.882 21.7677 30.8942 21.7676Z" fill="white"/>
<path d="M30.8943 21.7676C30.8822 21.7678 30.8715 21.766 30.8599 21.7657C30.8016 21.7672 30.7415 21.7703 30.8943 21.7676Z" fill="white"/>
<path d="M30.9066 21.7647C30.9023 21.7652 30.8983 21.7674 30.8943 21.7676C30.9258 21.7655 30.9231 21.7647 30.9066 21.7647Z" fill="white"/>
<path d="M30.3263 19.4554L29.7518 19.9647C29.7835 19.9839 29.8145 20.004 29.8446 20.0258C30.1219 20.2279 30.2971 20.5333 30.3779 20.863C30.419 21.0304 30.4342 21.2046 30.4536 21.3768C30.4801 21.6124 30.6139 21.7572 30.8601 21.7656C30.878 21.7652 30.8956 21.7648 30.9068 21.7647C31.0253 21.7516 31.1441 21.6685 31.182 21.5046C31.205 21.4055 31.1945 21.2959 31.1854 21.1924C31.114 20.3716 30.8037 19.8084 30.3263 19.4554Z" fill="#D1D1D1"/>
</g>
<defs>
<filter id="filter0_d" x="0" y="0" width="56" height="56" filterUnits="userSpaceOnUse" color-interpolation-filters="sRGB">
<feFlood flood-opacity="0" result="BackgroundImageFix"/>
<feColorMatrix in="SourceAlpha" type="matrix" values="0 0 0 0 0 0 0 0 0 0 0 0 0 0 0 0 0 0 127 0"/>
<feOffset dy="4"/>
<feGaussianBlur stdDeviation="2"/>
<feColorMatrix type="matrix" values="0 0 0 0 0 0 0 0 0 0 0 0 0 0 0 0 0 0 0.25 0"/>
<feBlend mode="normal" in2="BackgroundImageFix" result="effect1_dropShadow"/>
<feBlend mode="normal" in="SourceGraphic" in2="effect1_dropShadow" result="shape"/>
</filter>
</defs>
</svg>
