<svg width="64" height="64" viewBox="0 0 64 64" fill="none" xmlns="http://www.w3.org/2000/svg">
<path d="M32 64C49.6731 64 64 49.6731 64 32C64 14.3269 49.6731 0 32 0C14.3269 0 0 14.3269 0 32C0 49.6731 14.3269 64 32 64Z" fill="#FFCE00"/>
<path d="M64 31.9999C64 31.1462 63.9665 30.3003 63.9009 29.4634L51.1645 16.7272L48.6248 18.0687L37.1313 6.5752L26.8688 11.6132L32.2531 16.9976L16.851 49.9058L30.9275 63.9823C31.2836 63.9941 31.6411 64 32.0001 64C49.6731 64 64 49.6731 64 31.9999Z" fill="#FFA300"/>
<path d="M28.8846 8.92554H35.1153V16.9889H28.8846V8.92554Z" fill="#555A66"/>
<path d="M31.9772 8.92554H35.1154V16.9889H31.9772V8.92554Z" fill="#333940"/>
<path d="M12.8324 16.7273L17.2375 12.3222L22.9383 18.023L18.5332 22.4281L12.8324 16.7273Z" fill="#555A66"/>
<path d="M45.466 22.4346L41.0609 18.0294L46.7617 12.3286L51.1668 16.7338L45.466 22.4346Z" fill="#333940"/>
<path d="M32 56.2803C43.7049 56.2803 53.1935 46.7917 53.1935 35.0868C53.1935 23.382 43.7049 13.8933 32 13.8933C20.2952 13.8933 10.8065 23.382 10.8065 35.0868C10.8065 46.7917 20.2952 56.2803 32 56.2803Z" fill="#707789"/>
<path d="M32 13.8933C31.9924 13.8933 31.9849 13.8936 31.9772 13.8936V56.2799C31.9849 56.2799 31.9924 56.2802 32 56.2802C43.7049 56.2802 53.1935 46.7916 53.1935 35.0867C53.1935 23.3818 43.7049 13.8933 32 13.8933Z" fill="#555A66"/>
<path d="M32 51.1948C40.8962 51.1948 48.1081 43.9829 48.1081 35.0866C48.1081 26.1904 40.8962 18.9785 32 18.9785C23.1037 18.9785 15.8918 26.1904 15.8918 35.0866C15.8918 43.9829 23.1037 51.1948 32 51.1948Z" fill="white"/>
<path d="M32 18.9785C31.9924 18.9785 31.9849 18.9788 31.9772 18.9788V51.1944C31.9849 51.1944 31.9924 51.1946 32 51.1946C40.8962 51.1946 48.1081 43.9828 48.1081 35.0865C48.1081 26.1903 40.8962 18.9785 32 18.9785Z" fill="#E9EDF5"/>
<path d="M26.8687 6.5752H37.1311V11.6132H26.8687V6.5752Z" fill="#707789"/>
<path d="M31.9772 6.5752H37.1312V11.6132H31.9772V6.5752Z" fill="#555A66"/>
<path d="M30.6678 33.7605L39.5053 24.923L42.1565 27.5742L33.319 36.4117L30.6678 33.7605Z" fill="#333940"/>
<path d="M32 38.3712C33.8139 38.3712 35.2843 36.9008 35.2843 35.087C35.2843 33.2731 33.8139 31.8027 32 31.8027C30.1862 31.8027 28.7158 33.2731 28.7158 35.087C28.7158 36.9008 30.1862 38.3712 32 38.3712Z" fill="#707789"/>
<path d="M32 31.8025C31.9924 31.8025 31.9849 31.803 31.9772 31.8031V38.3705C31.9849 38.3705 31.9924 38.3711 32 38.3711C33.8139 38.3711 35.2842 36.9007 35.2842 35.0869C35.2842 33.273 33.8139 31.8025 32 31.8025Z" fill="#555A66"/>
</svg>
