<svg width="56" height="56" viewBox="0 0 56 56" fill="none" xmlns="http://www.w3.org/2000/svg">
<g filter="url(#filter0_d)">
<path d="M28 0C14.8094 0 4 10.8094 4 24C4 28.3594 5.18103 32.5781 7.4032 36.2908L4 48L15.7092 44.5968C19.4219 46.8186 23.6406 48 28 48C41.1906 48 52 37.1906 52 24C52 10.8094 41.1906 0 28 0Z" fill="#00DD7B"/>
<path d="M52 24C52 37.1906 41.1906 48 28 48V0C41.1906 0 52 10.8094 52 24Z" fill="#00CC71"/>
<path d="M43.1124 34.1532L41.9874 35.25C40.4123 36.8251 36.7561 36.7123 34.4219 36.2626C32.3407 35.8689 30.1094 34.9406 28 33.6467C22.2626 30.1593 17.0594 23.9718 15.7938 18.4032C14.9219 14.6342 15.4001 11.3719 16.6376 10.1063L17.7626 8.98132C18.3814 8.39062 19.3655 8.39062 19.9844 8.98132L24.4562 13.4531C24.7656 13.7626 24.9344 14.1562 24.9344 14.5781C24.9344 15 24.7656 15.3937 24.4562 15.7031L23.3312 16.7999C22.1219 18.0374 22.1219 20.0343 23.3312 21.2717L28 25.8563L30.7279 28.5564C31.9657 29.7938 34.0564 29.7938 35.2938 28.5564L36.3906 27.431C36.9813 26.8685 38.0499 26.8685 38.6406 27.431L43.1124 31.9032C43.7031 32.5217 43.7313 33.5061 43.1124 34.1532Z" fill="#ECECF1"/>
<path d="M43.1124 34.1532L41.9874 35.25C40.4123 36.8251 36.7561 36.7123 34.4219 36.2626C32.3407 35.8689 30.1094 34.9406 28 33.6467V25.8563L30.7279 28.5564C31.9657 29.7938 34.0564 29.7938 35.2938 28.5564L36.3906 27.431C36.9813 26.8685 38.0499 26.8685 38.6406 27.431L43.1124 31.9032C43.7031 32.5217 43.7313 33.5061 43.1124 34.1532Z" fill="#E2E2E7"/>
</g>
<defs>
<filter id="filter0_d" x="0" y="0" width="56" height="56" filterUnits="userSpaceOnUse" color-interpolation-filters="sRGB">
<feFlood flood-opacity="0" result="BackgroundImageFix"/>
<feColorMatrix in="SourceAlpha" type="matrix" values="0 0 0 0 0 0 0 0 0 0 0 0 0 0 0 0 0 0 127 0"/>
<feOffset dy="4"/>
<feGaussianBlur stdDeviation="2"/>
<feColorMatrix type="matrix" values="0 0 0 0 0 0 0 0 0 0 0 0 0 0 0 0 0 0 0.25 0"/>
<feBlend mode="normal" in2="BackgroundImageFix" result="effect1_dropShadow"/>
<feBlend mode="normal" in="SourceGraphic" in2="effect1_dropShadow" result="shape"/>
</filter>
</defs>
</svg>
